<svg width="32" height="39" viewBox="0 0 32 39" fill="none" xmlns="http://www.w3.org/2000/svg">
<rect width="32" height="39" fill="#F5F5F5"/>
<rect width="1600" height="3630" transform="translate(-1290 -45.8135)" fill="#191919"/>
<path d="M16.875 2.25635C8.59152 2.25635 1.875 10.3389 1.875 20.3072C1.875 30.2755 8.59152 38.358 16.875 38.358C25.1585 38.358 31.875 30.2755 31.875 20.3072C31.875 10.3389 25.1585 2.25635 16.875 2.25635ZM24.0837 15.863C24.0937 16.0524 24.0937 16.2498 24.0937 16.4432C24.0937 22.3581 20.3504 29.1715 13.51 29.1715C11.4007 29.1715 9.44531 28.4341 7.79799 27.1649C8.09933 27.2052 8.38728 27.2213 8.69531 27.2213C10.4364 27.2213 12.0368 26.5122 13.3125 25.3115C11.6786 25.2712 10.3058 23.9818 9.83705 22.209C10.4096 22.3097 10.9252 22.3097 11.5145 22.1284C10.6732 21.9227 9.91699 21.3729 9.37438 20.5723C8.83178 19.7716 8.53623 18.7697 8.53795 17.7366V17.6802C9.03013 18.0146 9.60938 18.2201 10.2154 18.2483C9.70595 17.8397 9.28814 17.2861 8.99903 16.6367C8.70993 15.9873 8.55845 15.262 8.55804 14.5253C8.55804 13.6912 8.73884 12.9297 9.06362 12.2689C9.99744 13.6523 11.1627 14.7837 12.4837 15.5897C13.8047 16.3956 15.2518 16.858 16.731 16.9468C16.2054 13.9048 18.0938 11.4429 20.3638 11.4429C21.4353 11.4429 22.3996 11.9829 23.0792 12.8532C23.9196 12.6638 24.7232 12.285 25.4397 11.7774C25.1618 12.8129 24.5792 13.6872 23.8058 14.2392C24.5558 14.1425 25.279 13.8927 25.9487 13.5422C25.4431 14.4366 24.8103 15.2304 24.0837 15.863Z" fill="#A7A7A7"/>
</svg>
