<svg width="30" height="37" viewBox="0 0 30 37" fill="none" xmlns="http://www.w3.org/2000/svg">
<rect width="30" height="37" fill="#F5F5F5"/>
<rect width="1600" height="3630" transform="translate(-1340 -48.2203)" fill="#191919"/>
<g clip-path="url(#clip0_0_1)">
<path d="M15.0001 0.722046C7.0471 0.722046 0.600098 8.4803 0.600098 18.0509C0.600098 27.6214 7.0471 35.3797 15.0001 35.3797C22.9531 35.3797 29.4001 27.6214 29.4001 18.0509C29.4001 8.4803 22.9531 0.722046 15.0001 0.722046ZM11.4751 25.2333H8.5591V13.9407H11.4751V25.2333ZM9.9991 12.5544C9.0781 12.5544 8.4826 11.7692 8.4826 10.798C8.4826 9.80704 9.0961 9.04529 10.0366 9.04529C10.9771 9.04529 11.5531 9.80704 11.5711 10.798C11.5711 11.7692 10.9771 12.5544 9.9991 12.5544ZM22.1251 25.2333H19.2091V18.9751C19.2091 17.5184 18.7861 16.5292 17.7316 16.5292C16.9261 16.5292 16.4476 17.1989 16.2361 17.8433C16.1581 18.0725 16.1386 18.3974 16.1386 18.7205V25.2315H13.2211V17.5418C13.2211 16.1321 13.1836 14.9533 13.1446 13.9389H15.6781L15.8116 15.5075H15.8701C16.2541 14.771 17.1946 13.6844 18.7681 13.6844C20.6866 13.6844 22.1251 15.2313 22.1251 18.5563V25.2333Z" fill="#A7A7A7"/>
</g>
<defs>
<clipPath id="clip0_0_1">
<rect width="30" height="36.1017" fill="white"/>
</clipPath>
</defs>
</svg>
